<?xml version="1.0" standalone="no"?>
<!DOCTYPE svg PUBLIC "-//W3C//DTD SVG 20010904//EN"
 "http://www.w3.org/TR/2001/REC-SVG-20010904/DTD/svg10.dtd">
<svg version="1.0" xmlns="http://www.w3.org/2000/svg"
 width="300.000000pt" height="300.000000pt" viewBox="0 0 300.000000 300.000000"
 preserveAspectRatio="xMidYMid meet">
<metadata>
Created by potrace 1.10, written by Peter Selinger 2001-2011
</metadata>
<g transform="translate(0.000000,300.000000) scale(0.100000,-0.100000)"
fill="#000000" stroke="none">
<path d="M649 2913 c44 -81 167 -125 246 -88 30 14 30 14 -15 8 -25 -3 -56 -5
-70 -4 -40 2 -125 48 -140 76 -7 14 -17 25 -22 25 -5 0 -4 -8 1 -17z"/>
<path d="M164 2866 c22 -17 146 -23 146 -7 0 5 -24 9 -52 8 -29 -1 -66 2 -83
6 -28 8 -29 8 -11 -7z"/>
<path d="M1360 2784 c-85 -31 -160 -98 -237 -212 -58 -84 -69 -199 -40 -402 1
-10 -5 -14 -20 -13 -41 5 -61 -73 -37 -145 19 -57 62 -122 80 -122 8 0 14 -6
14 -12 0 -7 12 -40 26 -73 37 -85 46 -162 24 -200 -15 -27 -31 -79 -73 -240
-12 -49 -14 -50 -80 -77 -38 -15 -80 -36 -95 -47 -15 -10 -83 -42 -152 -71
-69 -30 -129 -59 -135 -65 -5 -6 -48 -31 -95 -54 -47 -24 -94 -51 -105 -61
-11 -9 -42 -30 -68 -45 -27 -15 -51 -35 -54 -44 -11 -34 -49 -107 -79 -151
-61 -90 -81 -134 -81 -183 -1 -26 -5 -53 -11 -60 -19 -25 -44 -156 -53 -280
-5 -70 -13 -146 -19 -170 -13 -55 -12 -57 5 -57 8 0 15 6 15 13 0 6 7 48 16
92 8 44 15 98 14 120 -1 61 39 269 58 299 3 6 7 24 8 40 6 67 49 152 116 226
10 11 15 26 12 35 -4 8 -1 15 5 15 6 0 17 12 24 27 17 39 46 66 63 59 8 -3 14
-2 14 3 0 13 101 79 132 87 16 3 25 10 23 15 -3 5 7 11 22 15 15 4 30 10 33
13 17 20 94 62 106 57 8 -3 13 -2 10 2 -2 4 19 16 47 26 55 19 183 81 201 98
6 6 31 20 56 32 50 24 70 55 90 139 7 31 16 57 19 57 4 0 7 10 8 22 1 11 8 25
15 29 7 5 11 23 10 46 -3 29 2 44 17 57 16 15 18 22 10 33 -7 7 -13 30 -15 51
-4 57 -49 170 -78 197 -14 13 -26 29 -26 34 0 6 -8 15 -17 20 -12 7 -14 13 -7
18 5 5 8 29 6 55 -3 35 -7 45 -18 41 -8 -3 -14 1 -14 11 0 9 7 19 15 22 23 9
34 63 36 179 2 105 20 201 50 269 11 23 68 67 94 71 27 5 28 8 6 14 l-25 7 30
27 c37 35 85 66 110 70 10 1 24 5 29 8 6 4 45 6 89 6 61 0 89 -5 125 -22 54
-26 119 -81 109 -91 -4 -4 -13 -2 -20 4 -15 12 -108 21 -108 10 0 -7 95 -39
108 -36 29 6 112 -58 112 -85 0 -7 9 -27 20 -44 11 -18 17 -33 14 -33 -4 0 -1
-6 5 -14 16 -19 33 -78 20 -71 -10 7 -13 -8 -3 -18 4 -4 6 -44 5 -89 -1 -70
14 -174 19 -128 1 8 5 26 8 40 4 14 7 93 7 175 l-1 150 -50 69 c-49 69 -148
154 -229 198 -54 29 -200 36 -265 12z"/>
<path d="M0 2447 c0 -23 4 -36 10 -32 5 3 10 1 10 -6 0 -7 2 -10 5 -8 2 3 -2
23 -10 44 l-14 40 -1 -38z"/>
<path d="M40 2371 c0 -6 4 -11 9 -11 5 0 12 -13 16 -30 4 -16 10 -32 15 -35
28 -17 146 -298 195 -465 13 -43 32 -140 28 -140 -3 0 -1 -6 5 -12 5 -7 13
-35 16 -61 4 -27 10 -46 13 -44 7 8 -24 164 -57 287 -33 119 -102 292 -158
389 -20 36 -42 78 -48 92 -13 29 -34 47 -34 30z"/>
<path d="M1637 2335 c-32 -7 -61 -15 -64 -19 -14 -14 6 -15 66 -5 47 9 73 9
102 0 53 -16 71 -3 28 20 -39 21 -53 21 -132 4z"/>
<path d="M1766 2256 c46 -40 40 -56 -13 -33 -21 9 -60 19 -88 22 -45 5 -52 3
-68 -20 -10 -14 -14 -25 -8 -25 5 0 11 4 13 9 2 4 13 12 26 15 16 6 22 3 22
-8 0 -9 8 -16 20 -16 13 0 17 5 14 14 -4 11 0 13 18 9 13 -3 28 -9 33 -13 6
-4 27 -10 48 -13 32 -5 37 -3 37 14 0 25 -52 79 -76 79 -12 0 -6 -10 22 -34z"/>
<path d="M1237 2222 c-17 -3 -17 -5 5 -20 25 -18 48 -24 48 -14 0 4 4 13 9 21
7 10 13 11 31 1 18 -10 21 -9 18 2 -6 19 -58 23 -58 5 0 -8 -7 -17 -14 -20
-10 -4 -13 -1 -10 7 7 17 -5 24 -29 18z"/>
<path d="M1530 2196 c0 -19 23 -46 39 -46 6 0 11 5 11 11 0 5 -4 7 -10 4 -5
-3 -10 0 -10 8 0 8 -7 20 -15 27 -12 10 -15 9 -15 -4z"/>
<path d="M1685 2170 c-17 -7 -15 -9 10 -8 17 0 41 4 55 8 23 7 22 8 -10 8 -19
0 -44 -3 -55 -8z"/>
<path d="M1925 2162 c-10 -7 -35 -48 -35 -57 0 -3 8 -1 19 4 23 13 31 5 31
-32 l0 -30 -23 21 c-28 27 -40 19 -24 -15 7 -16 8 -27 1 -31 -6 -4 -13 -14
-16 -23 -5 -13 -1 -15 20 -11 24 5 25 3 14 -11 -8 -9 -19 -15 -25 -14 -7 1
-11 -8 -9 -22 2 -13 -1 -21 -6 -17 -5 3 -15 -1 -22 -9 -7 -8 -16 -13 -20 -10
-13 8 -20 -25 -10 -46 6 -10 7 -19 2 -19 -12 0 -34 -70 -37 -112 -4 -79 -5
-89 -15 -83 -5 3 -10 2 -10 -3 0 -6 7 -13 16 -16 10 -4 13 -13 9 -25 -3 -11
-2 -22 3 -25 5 -3 15 36 21 87 18 142 42 233 65 243 30 14 96 142 96 187 0 57
-20 88 -45 69z"/>
<path d="M1600 2101 c0 -12 59 -61 73 -61 7 0 6 4 -3 10 -8 5 -11 10 -7 10 10
0 -47 50 -57 50 -3 0 -6 -4 -6 -9z"/>
<path d="M1395 2042 c-35 -7 -41 -22 -9 -22 17 0 35 -5 41 -11 6 -6 16 -10 23
-7 19 6 -33 45 -55 40z"/>
<path d="M1523 2035 c-18 -8 -33 -16 -33 -18 0 -2 26 -3 57 -3 47 1 58 4 61
19 4 22 -38 23 -85 2z"/>
<path d="M1474 1953 l-29 -14 40 5 c22 3 50 6 63 6 13 0 20 4 17 10 -8 13 -53
10 -91 -7z"/>
<path d="M1650 1936 c0 -5 7 -17 16 -27 14 -16 14 -18 -5 -24 -12 -3 -30 1
-45 10 -19 13 -39 16 -78 11 -67 -7 -128 -13 -150 -15 -18 -1 -14 -31 4 -31 5
0 6 6 2 13 -6 9 -3 8 8 -1 12 -9 22 -10 35 -4 15 8 68 8 140 0 6 -1 9 -6 7
-12 -3 -7 11 -10 42 -8 31 3 47 9 51 21 4 9 10 18 13 21 4 3 -4 16 -16 30 -13
13 -24 21 -24 16z"/>
<path d="M1302 1863 c-21 -8 -3 -23 29 -23 19 0 29 5 29 15 0 15 -31 19 -58 8z"/>
<path d="M981 1820 c-46 -22 -81 -43 -78 -46 3 -3 23 3 44 13 21 11 63 32 93
46 30 15 48 27 40 27 -8 0 -53 -18 -99 -40z"/>
<path d="M1475 1831 c-52 -5 -64 -8 -45 -13 45 -14 117 -9 124 7 3 8 2 14 -2
13 -4 -1 -38 -4 -77 -7z"/>
<path d="M1890 1835 c0 -3 19 -15 43 -26 109 -51 277 -164 277 -186 0 -7 5
-13 11 -13 6 0 32 -21 57 -47 47 -48 107 -123 98 -123 -2 0 8 -13 24 -30 15
-16 33 -43 40 -60 11 -25 30 -42 30 -25 0 6 -31 57 -40 65 -3 3 -11 17 -18 31
-25 48 -137 173 -212 236 -112 95 -310 208 -310 178z"/>
<path d="M1563 1765 c-32 -23 -105 -29 -149 -14 -58 19 -67 20 -53 3 6 -7 15
-11 20 -8 5 3 9 1 9 -4 0 -10 17 -13 90 -16 61 -1 96 9 105 32 8 22 2 24 -22
7z"/>
<path d="M332 1540 c0 -14 4 -36 8 -50 8 -24 8 -24 8 5 0 17 -3 39 -8 50 -8
18 -9 18 -8 -5z"/>
<path d="M1796 1536 c-4 -15 -20 -56 -36 -90 -32 -67 -36 -86 -20 -86 6 0 10
6 10 14 0 19 29 48 41 41 5 -4 9 9 9 27 l1 33 14 -39 c8 -22 11 -44 8 -50 -3
-6 0 -6 7 1 11 10 10 27 -7 94 -17 70 -21 79 -27 55z"/>
<path d="M1855 1373 c4 -10 9 -52 10 -93 2 -41 7 -86 12 -100 8 -20 11 -7 17
68 4 51 11 92 14 92 14 0 82 -72 82 -86 0 -8 4 -14 9 -14 5 0 13 -9 16 -20 7
-21 45 -28 45 -9 0 6 6 5 14 -3 57 -55 103 -74 134 -55 7 5 12 3 12 -5 1 -16
74 -51 115 -56 17 -1 52 -14 78 -27 27 -14 53 -23 57 -20 5 3 6 -10 3 -30 -7
-42 -2 -43 32 -9 31 31 51 23 29 -12 -9 -13 -14 -27 -11 -31 4 -3 9 2 13 11 3
9 13 16 21 16 15 0 110 -80 95 -80 -4 0 1 -5 10 -10 9 -6 22 -26 28 -45 6 -19
16 -33 20 -30 12 8 33 -33 24 -47 -4 -7 -3 -8 4 -4 7 4 15 -9 23 -36 6 -24 15
-54 20 -68 4 -14 13 -45 20 -70 6 -25 13 -54 16 -65 17 -61 14 -116 -6 -155
-23 -45 -18 -50 16 -18 l23 22 -2 -50 c-3 -62 9 -185 21 -216 11 -29 11 -30
11 -73 0 -23 6 -38 15 -42 9 -3 18 -3 20 -1 3 2 -4 49 -15 104 -10 55 -24 168
-29 250 -12 185 -34 262 -136 478 -47 101 -157 207 -237 231 -31 9 -68 25 -81
35 -14 11 -65 33 -114 49 -48 16 -114 41 -146 55 -32 15 -63 23 -69 20 -6 -4
-8 -3 -5 3 4 6 -10 19 -31 29 -20 10 -56 36 -79 56 -22 20 -60 46 -83 58 -40
20 -42 20 -35 3z m503 -263 c11 -7 11 -9 2 -6 -8 3 -34 10 -57 17 -24 6 -43
15 -43 20 0 9 69 -13 98 -31z"/>
<path d="M2752 1234 c-46 -24 -78 -44 -70 -43 7 0 38 13 68 29 30 16 63 32 73
36 9 3 17 10 17 15 0 11 8 15 -88 -37z"/>
<path d="M1800 1208 c0 -7 -15 -27 -32 -46 -23 -24 -27 -31 -12 -24 11 6 26
18 34 26 17 22 36 20 54 -6 21 -30 30 -17 12 17 -20 39 -56 60 -56 33z"/>
<path d="M388 1104 c-2 -42 0 -78 5 -81 4 -2 7 32 7 76 0 45 -2 81 -4 81 -3 0
-6 -34 -8 -76z"/>
<path d="M2600 1080 c0 -8 9 -28 21 -45 19 -28 20 -28 13 -5 -9 34 -34 70 -34
50z"/>
<path d="M1627 1063 c-11 -10 -8 -53 3 -53 6 0 10 14 10 30 0 31 -2 35 -13 23z"/>
<path d="M1215 998 c11 -15 31 -33 45 -40 14 -7 34 -21 45 -31 26 -24 75 -50
82 -43 3 2 -14 16 -36 30 -23 15 -41 31 -41 36 0 6 -9 10 -20 10 -10 0 -36 15
-57 33 -34 29 -35 30 -18 5z"/>
<path d="M210 1002 c0 -8 -151 -160 -189 -190 -13 -10 -22 -26 -20 -36 3 -13
23 1 82 61 42 42 77 83 77 90 0 7 4 13 9 13 5 0 21 16 35 35 15 19 22 35 17
35 -6 0 -11 -4 -11 -8z"/>
<path d="M2540 906 c0 -8 -6 -16 -13 -19 -23 -9 -97 -143 -96 -174 l1 -28 10
30 c11 31 75 136 88 145 8 6 30 46 30 54 0 3 -4 6 -10 6 -5 0 -10 -6 -10 -14z"/>
<path d="M1857 883 c-7 -37 -26 -44 -34 -13 -6 24 -12 24 -37 5 -13 -10 -24
-11 -36 -5 -13 7 -22 5 -30 -5 -8 -9 -21 -13 -31 -10 -24 8 -35 -18 -44 -109
-6 -54 -5 -67 5 -61 26 16 90 14 99 -3 10 -18 11 -17 27 36 2 8 15 12 31 10
25 -3 28 -6 25 -38 -4 -40 10 -33 15 8 2 15 10 45 18 67 10 29 12 56 7 95 -7
52 -8 53 -15 23z m-84 -36 c4 3 7 -1 7 -10 0 -9 -4 -17 -8 -17 -10 0 -42 -55
-41 -72 0 -7 5 -2 11 12 l11 25 5 -24 c4 -23 -14 -45 -29 -35 -4 2 -10 0 -14
-6 -11 -18 -47 -12 -43 8 2 10 11 16 21 14 21 -4 22 11 2 28 -18 15 -16 51 3
58 9 3 11 -3 6 -22 -4 -16 -2 -26 5 -26 6 0 11 13 11 28 0 34 18 56 35 42 7
-5 15 -7 18 -3z m83 -41 c-8 -39 -25 -58 -50 -54 -49 7 -19 90 31 86 22 -2 24
-6 19 -32z"/>
<path d="M1804 805 c-7 -17 4 -37 17 -30 12 8 12 45 -1 45 -6 0 -13 -7 -16
-15z"/>
<path d="M2827 729 c51 -63 133 -134 133 -115 0 7 -130 131 -142 135 -5 2 -1
-7 9 -20z"/>
<path d="M1691 601 c-1 -7 -7 -11 -16 -7 -24 9 -75 -5 -75 -20 0 -8 5 -14 10
-14 6 0 10 -4 10 -10 0 -5 -9 -10 -20 -10 -15 0 -20 7 -20 27 0 34 -10 24 -20
-21 -6 -28 -4 -38 11 -52 18 -16 19 -16 19 4 0 11 -6 23 -12 26 -7 3 -4 4 8 1
13 -3 28 3 44 20 15 16 34 25 54 25 l31 0 -33 -28 -32 -28 35 -31 c34 -30 47
-63 24 -63 -5 0 -8 -4 -4 -9 3 -5 -4 -13 -16 -16 -15 -5 -25 -2 -31 9 -5 9
-17 16 -26 15 -14 0 -13 -3 6 -16 12 -8 22 -21 22 -28 0 -7 6 -18 14 -24 11
-9 15 -7 19 9 4 15 13 20 36 20 27 0 31 -3 31 -27 0 -39 16 -16 24 35 4 26 2
42 -4 42 -5 0 -10 -6 -10 -14 0 -21 -20 -30 -33 -17 -8 8 -8 14 0 22 14 14 -2
65 -23 73 -21 8 -17 33 8 50 20 14 20 16 4 22 -10 4 -22 16 -26 28 -5 12 -9
15 -9 7z"/>
<path d="M1509 545 c-9 -25 -13 -45 -9 -45 5 0 15 20 23 45 9 25 13 45 9 45
-4 0 -14 -20 -23 -45z"/>
<path d="M1788 523 c14 -6 16 -43 2 -43 -5 0 -10 -9 -10 -20 0 -36 16 -21 27
25 10 42 9 45 -11 44 -11 0 -15 -3 -8 -6z"/>
<path d="M1624 475 c-7 -17 2 -45 13 -45 24 1 35 18 24 39 -14 25 -29 27 -37
6z"/>
<path d="M1540 434 c0 -27 4 -43 10 -39 6 3 10 1 10 -5 0 -6 4 -9 9 -5 14 8
46 -42 65 -102 11 -34 28 -60 46 -73 38 -27 51 -7 15 22 -30 24 -55 74 -55
112 0 17 -11 33 -30 48 -17 12 -35 37 -42 55 -17 46 -28 41 -28 -13z"/>
<path d="M1707 334 c-4 -4 -2 -13 4 -21 9 -9 8 -13 0 -13 -6 0 -14 7 -17 15
-4 8 -10 12 -15 9 -10 -6 10 -45 29 -57 7 -5 17 -18 22 -30 8 -19 9 -20 9 -3
1 10 -7 25 -16 32 -10 7 -15 16 -11 20 4 4 14 2 22 -5 10 -9 15 -9 18 1 6 15
-35 62 -45 52z"/>
</g>
</svg>
